<mxfile host="app.diagrams.net" agent="Mozilla/5.0 (Windows NT 10.0; Win64; x64) AppleWebKit/537.36 (KHTML, like Gecko) Chrome/135.0.0.0 Safari/537.36 Edg/135.0.0.0" version="27.0.9">
  <diagram name="Page-1" id="edf60f1a-56cd-e834-aa8a-f176f3a09ee4">
    <mxGraphModel dx="1418" dy="884" grid="1" gridSize="10" guides="1" tooltips="1" connect="1" arrows="1" fold="1" page="1" pageScale="1" pageWidth="1100" pageHeight="850" background="none" math="0" shadow="0">
      <root>
        <mxCell id="0" />
        <mxCell id="1" parent="0" />
        <mxCell id="0JRzUO5kH9y1u78RFZqx-6" value="" style="edgeStyle=none;curved=1;rounded=0;orthogonalLoop=1;jettySize=auto;html=1;fontSize=12;startSize=8;endSize=8;" edge="1" parent="1" source="0JRzUO5kH9y1u78RFZqx-1" target="0JRzUO5kH9y1u78RFZqx-5">
          <mxGeometry relative="1" as="geometry" />
        </mxCell>
        <mxCell id="0JRzUO5kH9y1u78RFZqx-1" value="Bắt Đầu" style="ellipse;whiteSpace=wrap;html=1;" vertex="1" parent="1">
          <mxGeometry x="420" y="100" width="120" height="80" as="geometry" />
        </mxCell>
        <mxCell id="0JRzUO5kH9y1u78RFZqx-8" value="" style="edgeStyle=none;curved=1;rounded=0;orthogonalLoop=1;jettySize=auto;html=1;fontSize=12;startSize=8;endSize=8;" edge="1" parent="1" source="0JRzUO5kH9y1u78RFZqx-5" target="0JRzUO5kH9y1u78RFZqx-7">
          <mxGeometry relative="1" as="geometry" />
        </mxCell>
        <mxCell id="0JRzUO5kH9y1u78RFZqx-5" value="&lt;font&gt;Khởi tạo hệ thống :&lt;br&gt;- Khởi tạo Serial (115200 baud)&lt;br&gt;   - Cấu hình chân động cơ (IN1, IN2, IN3, IN4: OUTPUT), dừng động cơ&lt;br&gt;   - Cấu hình cảm biến siêu âm (TRIG: OUTPUT, ECHO: INPUT)&lt;br&gt;   - Cấu hình encoder (A, B: INPUT_PULLUP, gắn ngắt cho A)&lt;br&gt;   - Cấu hình LED (LED_PIN: OUTPUT, tắt)&lt;br&gt;   - Cấu hình radio nRF24L01 (pipe đọc/ghi &quot;00001&quot;, PA_LOW, 2MBPS, retries 1,1, startListening)&lt;/font&gt;" style="whiteSpace=wrap;html=1;align=left;" vertex="1" parent="1">
          <mxGeometry x="262.5" y="240" width="435" height="140" as="geometry" />
        </mxCell>
        <mxCell id="0JRzUO5kH9y1u78RFZqx-10" value="" style="edgeStyle=none;curved=1;rounded=0;orthogonalLoop=1;jettySize=auto;html=1;fontSize=12;startSize=8;endSize=8;" edge="1" parent="1" source="0JRzUO5kH9y1u78RFZqx-7" target="0JRzUO5kH9y1u78RFZqx-9">
          <mxGeometry relative="1" as="geometry" />
        </mxCell>
        <mxCell id="0JRzUO5kH9y1u78RFZqx-7" value="&lt;p style=&quot;white-space-collapse: preserve;&quot; dir=&quot;auto&quot;&gt;In &quot;Đang chờ kết nối với tay cầm...&quot;&lt;/p&gt;" style="rounded=1;whiteSpace=wrap;html=1;align=center;" vertex="1" parent="1">
          <mxGeometry x="420" y="420" width="120" height="60" as="geometry" />
        </mxCell>
        <mxCell id="0JRzUO5kH9y1u78RFZqx-19" value="" style="edgeStyle=none;curved=1;rounded=0;orthogonalLoop=1;jettySize=auto;html=1;fontSize=12;startSize=8;endSize=8;" edge="1" parent="1" source="0JRzUO5kH9y1u78RFZqx-9" target="0JRzUO5kH9y1u78RFZqx-18">
          <mxGeometry relative="1" as="geometry" />
        </mxCell>
        <mxCell id="0JRzUO5kH9y1u78RFZqx-9" value="&lt;p style=&quot;white-space-collapse: preserve;&quot; dir=&quot;auto&quot;&gt;isConnected == false?&lt;/p&gt;" style="rhombus;whiteSpace=wrap;html=1;rounded=1;" vertex="1" parent="1">
          <mxGeometry x="410" y="530" width="140" height="100" as="geometry" />
        </mxCell>
        <mxCell id="0JRzUO5kH9y1u78RFZqx-13" value="Yes" style="text;html=1;align=center;verticalAlign=middle;resizable=0;points=[];autosize=1;strokeColor=none;fillColor=none;fontSize=16;" vertex="1" parent="1">
          <mxGeometry x="440" y="640" width="50" height="30" as="geometry" />
        </mxCell>
        <mxCell id="0JRzUO5kH9y1u78RFZqx-21" value="" style="edgeStyle=none;curved=1;rounded=0;orthogonalLoop=1;jettySize=auto;html=1;fontSize=12;startSize=8;endSize=8;" edge="1" parent="1" source="0JRzUO5kH9y1u78RFZqx-18" target="0JRzUO5kH9y1u78RFZqx-22">
          <mxGeometry relative="1" as="geometry">
            <mxPoint x="480" y="900" as="targetPoint" />
          </mxGeometry>
        </mxCell>
        <mxCell id="0JRzUO5kH9y1u78RFZqx-18" value="&lt;p style=&quot;white-space-collapse: preserve;&quot; dir=&quot;auto&quot;&gt;Có dữ liệu radio?&lt;/p&gt;" style="rhombus;whiteSpace=wrap;html=1;rounded=1;" vertex="1" parent="1">
          <mxGeometry x="415" y="690" width="130" height="100" as="geometry" />
        </mxCell>
        <mxCell id="0JRzUO5kH9y1u78RFZqx-72" value="" style="edgeStyle=none;curved=1;rounded=0;orthogonalLoop=1;jettySize=auto;html=1;fontSize=12;startSize=8;endSize=8;" edge="1" parent="1" source="0JRzUO5kH9y1u78RFZqx-22" target="0JRzUO5kH9y1u78RFZqx-69">
          <mxGeometry relative="1" as="geometry" />
        </mxCell>
        <mxCell id="0JRzUO5kH9y1u78RFZqx-22" value="- Đọc dữ liệu vào DataPacket&amp;nbsp;&lt;br&gt;   - Nếu data.ping == true:&amp;nbsp;&lt;br&gt;+ In &quot;Nhận tín hiệu...&quot;&amp;nbsp;&lt;br&gt;+ Ngừng lắng nghe, gửi phản hồi, tiếp tục lắng nghe&lt;br&gt;+ isConnected = true&amp;nbsp;&lt;br&gt;+ In &quot;Đã kết nối thành công!" style="rounded=0;whiteSpace=wrap;html=1;align=left;" vertex="1" parent="1">
          <mxGeometry x="350" y="840" width="260" height="130" as="geometry" />
        </mxCell>
        <mxCell id="0JRzUO5kH9y1u78RFZqx-68" value="" style="edgeStyle=none;curved=1;rounded=0;orthogonalLoop=1;jettySize=auto;html=1;fontSize=12;startSize=8;endSize=8;" edge="1" parent="1" source="0JRzUO5kH9y1u78RFZqx-23" target="0JRzUO5kH9y1u78RFZqx-22">
          <mxGeometry relative="1" as="geometry" />
        </mxCell>
        <mxCell id="0JRzUO5kH9y1u78RFZqx-23" value="Yes" style="text;html=1;align=center;verticalAlign=middle;resizable=0;points=[];autosize=1;strokeColor=none;fillColor=none;fontSize=16;" vertex="1" parent="1">
          <mxGeometry x="440" y="800" width="50" height="30" as="geometry" />
        </mxCell>
        <mxCell id="0JRzUO5kH9y1u78RFZqx-41" value="" style="edgeStyle=none;curved=1;rounded=0;orthogonalLoop=1;jettySize=auto;html=1;fontSize=12;startSize=8;endSize=8;" edge="1" parent="1" source="0JRzUO5kH9y1u78RFZqx-25" target="0JRzUO5kH9y1u78RFZqx-40">
          <mxGeometry relative="1" as="geometry" />
        </mxCell>
        <mxCell id="0JRzUO5kH9y1u78RFZqx-25" value="&lt;p style=&quot;white-space-collapse: preserve;&quot; dir=&quot;auto&quot;&gt;data.buttonE == true và mode != 1?&lt;/p&gt;" style="rhombus;whiteSpace=wrap;html=1;align=center;rounded=0;" vertex="1" parent="1">
          <mxGeometry x="350" y="1250" width="260" height="125" as="geometry" />
        </mxCell>
        <mxCell id="0JRzUO5kH9y1u78RFZqx-36" value="" style="edgeStyle=segmentEdgeStyle;endArrow=classic;html=1;curved=0;rounded=0;endSize=8;startSize=8;fontSize=12;exitX=1;exitY=0.5;exitDx=0;exitDy=0;entryX=1;entryY=0.5;entryDx=0;entryDy=0;" edge="1" parent="1" source="0JRzUO5kH9y1u78RFZqx-9" target="0JRzUO5kH9y1u78RFZqx-22">
          <mxGeometry width="50" height="50" relative="1" as="geometry">
            <mxPoint x="640" y="720" as="sourcePoint" />
            <mxPoint x="690" y="670" as="targetPoint" />
            <Array as="points">
              <mxPoint x="680" y="580" />
              <mxPoint x="680" y="905" />
            </Array>
          </mxGeometry>
        </mxCell>
        <mxCell id="0JRzUO5kH9y1u78RFZqx-37" value="No" style="text;html=1;align=center;verticalAlign=middle;resizable=0;points=[];autosize=1;strokeColor=none;fillColor=none;fontSize=16;" vertex="1" parent="1">
          <mxGeometry x="680" y="700" width="40" height="30" as="geometry" />
        </mxCell>
        <mxCell id="0JRzUO5kH9y1u78RFZqx-43" value="" style="edgeStyle=none;curved=1;rounded=0;orthogonalLoop=1;jettySize=auto;html=1;fontSize=12;startSize=8;endSize=8;" edge="1" parent="1" source="0JRzUO5kH9y1u78RFZqx-40" target="0JRzUO5kH9y1u78RFZqx-42">
          <mxGeometry relative="1" as="geometry" />
        </mxCell>
        <mxCell id="0JRzUO5kH9y1u78RFZqx-40" value="&lt;p dir=&quot;auto&quot; style=&quot;white-space-collapse: preserve;&quot;&gt;- mode = 1                    &lt;br&gt;    - In &quot;Đã chọn chế độ tự động&quot; &lt;br&gt;    - Nháy LED 1 lần              &lt;br&gt;    - Cấu hình cảm biến dò line&lt;/p&gt;" style="whiteSpace=wrap;html=1;rounded=0;align=left;" vertex="1" parent="1">
          <mxGeometry x="375" y="1410" width="210" height="97.5" as="geometry" />
        </mxCell>
        <mxCell id="0JRzUO5kH9y1u78RFZqx-45" value="" style="edgeStyle=none;curved=1;rounded=0;orthogonalLoop=1;jettySize=auto;html=1;fontSize=12;startSize=8;endSize=8;" edge="1" parent="1" source="0JRzUO5kH9y1u78RFZqx-42" target="0JRzUO5kH9y1u78RFZqx-44">
          <mxGeometry relative="1" as="geometry" />
        </mxCell>
        <mxCell id="0JRzUO5kH9y1u78RFZqx-42" value="&lt;p style=&quot;white-space-collapse: preserve;&quot; dir=&quot;auto&quot;&gt;data.buttonF == true và mode != 0?&lt;/p&gt;" style="rhombus;whiteSpace=wrap;html=1;align=center;rounded=0;" vertex="1" parent="1">
          <mxGeometry x="350" y="1560" width="260" height="110" as="geometry" />
        </mxCell>
        <mxCell id="0JRzUO5kH9y1u78RFZqx-47" value="" style="edgeStyle=none;curved=1;rounded=0;orthogonalLoop=1;jettySize=auto;html=1;fontSize=12;startSize=8;endSize=8;" edge="1" parent="1" source="0JRzUO5kH9y1u78RFZqx-44" target="0JRzUO5kH9y1u78RFZqx-46">
          <mxGeometry relative="1" as="geometry" />
        </mxCell>
        <mxCell id="0JRzUO5kH9y1u78RFZqx-44" value="- mode = 0                   |&lt;br&gt;    - In &quot;Đã chọn chế độ tay&quot;    |&lt;br&gt;    - Nháy LED 2 lần" style="whiteSpace=wrap;html=1;rounded=0;align=left;" vertex="1" parent="1">
          <mxGeometry x="390" y="1730" width="180" height="70" as="geometry" />
        </mxCell>
        <mxCell id="0JRzUO5kH9y1u78RFZqx-86" style="edgeStyle=none;curved=1;rounded=0;orthogonalLoop=1;jettySize=auto;html=1;entryX=0.5;entryY=0;entryDx=0;entryDy=0;fontSize=12;startSize=8;endSize=8;" edge="1" parent="1" source="0JRzUO5kH9y1u78RFZqx-46" target="0JRzUO5kH9y1u78RFZqx-48">
          <mxGeometry relative="1" as="geometry" />
        </mxCell>
        <mxCell id="0JRzUO5kH9y1u78RFZqx-46" value="&lt;p style=&quot;white-space-collapse: preserve;&quot; dir=&quot;auto&quot;&gt;mode == 1?&lt;/p&gt;" style="rhombus;whiteSpace=wrap;html=1;align=center;rounded=0;" vertex="1" parent="1">
          <mxGeometry x="430" y="1870" width="100" height="65" as="geometry" />
        </mxCell>
        <mxCell id="0JRzUO5kH9y1u78RFZqx-51" value="" style="edgeStyle=none;curved=1;rounded=0;orthogonalLoop=1;jettySize=auto;html=1;fontSize=12;startSize=8;endSize=8;" edge="1" parent="1" source="0JRzUO5kH9y1u78RFZqx-48" target="0JRzUO5kH9y1u78RFZqx-50">
          <mxGeometry relative="1" as="geometry" />
        </mxCell>
        <mxCell id="0JRzUO5kH9y1u78RFZqx-48" value="&lt;p style=&quot;white-space-collapse: preserve;&quot; dir=&quot;auto&quot;&gt;Gọi followLine()&lt;/p&gt;" style="whiteSpace=wrap;html=1;rounded=0;" vertex="1" parent="1">
          <mxGeometry x="420" y="2000" width="120" height="60" as="geometry" />
        </mxCell>
        <mxCell id="0JRzUO5kH9y1u78RFZqx-53" value="" style="edgeStyle=none;curved=1;rounded=0;orthogonalLoop=1;jettySize=auto;html=1;fontSize=12;startSize=8;endSize=8;" edge="1" parent="1" source="0JRzUO5kH9y1u78RFZqx-50" target="0JRzUO5kH9y1u78RFZqx-52">
          <mxGeometry relative="1" as="geometry" />
        </mxCell>
        <mxCell id="0JRzUO5kH9y1u78RFZqx-50" value="&lt;p style=&quot;white-space-collapse: preserve;&quot; dir=&quot;auto&quot;&gt;Quay lại vòng lặp (loop)&lt;/p&gt;" style="whiteSpace=wrap;html=1;rounded=0;" vertex="1" parent="1">
          <mxGeometry x="420" y="2150" width="120" height="60" as="geometry" />
        </mxCell>
        <mxCell id="0JRzUO5kH9y1u78RFZqx-52" value="&lt;p style=&quot;white-space-collapse: preserve;&quot; dir=&quot;auto&quot;&gt;KẾT THÚC&lt;/p&gt;" style="ellipse;whiteSpace=wrap;html=1;" vertex="1" parent="1">
          <mxGeometry x="420" y="2270" width="120" height="80" as="geometry" />
        </mxCell>
        <mxCell id="0JRzUO5kH9y1u78RFZqx-55" value="Yes" style="text;html=1;align=center;verticalAlign=middle;resizable=0;points=[];autosize=1;strokeColor=none;fillColor=none;fontSize=16;" vertex="1" parent="1">
          <mxGeometry x="480" y="1520" width="50" height="30" as="geometry" />
        </mxCell>
        <mxCell id="0JRzUO5kH9y1u78RFZqx-56" value="Yes" style="text;html=1;align=center;verticalAlign=middle;resizable=0;points=[];autosize=1;strokeColor=none;fillColor=none;fontSize=16;" vertex="1" parent="1">
          <mxGeometry x="475" y="1950" width="50" height="30" as="geometry" />
        </mxCell>
        <mxCell id="0JRzUO5kH9y1u78RFZqx-57" value="" style="edgeStyle=segmentEdgeStyle;endArrow=classic;html=1;curved=0;rounded=0;endSize=8;startSize=8;fontSize=12;exitX=0;exitY=0.5;exitDx=0;exitDy=0;" edge="1" parent="1" source="0JRzUO5kH9y1u78RFZqx-18" target="0JRzUO5kH9y1u78RFZqx-50">
          <mxGeometry width="50" height="50" relative="1" as="geometry">
            <mxPoint x="375" y="770" as="sourcePoint" />
            <mxPoint x="372.98" y="2100" as="targetPoint" />
            <Array as="points">
              <mxPoint x="90" y="740" />
              <mxPoint x="90" y="2180" />
            </Array>
          </mxGeometry>
        </mxCell>
        <mxCell id="0JRzUO5kH9y1u78RFZqx-58" value="No" style="text;html=1;align=center;verticalAlign=middle;resizable=0;points=[];autosize=1;strokeColor=none;fillColor=none;fontSize=16;" vertex="1" parent="1">
          <mxGeometry x="30" y="1280" width="40" height="30" as="geometry" />
        </mxCell>
        <mxCell id="0JRzUO5kH9y1u78RFZqx-59" value="" style="edgeStyle=segmentEdgeStyle;endArrow=classic;html=1;curved=0;rounded=0;endSize=8;startSize=8;fontSize=12;entryX=1;entryY=0.5;entryDx=0;entryDy=0;exitX=1;exitY=0.5;exitDx=0;exitDy=0;" edge="1" parent="1" source="0JRzUO5kH9y1u78RFZqx-69" target="0JRzUO5kH9y1u78RFZqx-50">
          <mxGeometry width="50" height="50" relative="1" as="geometry">
            <mxPoint x="610" y="1190" as="sourcePoint" />
            <mxPoint x="540" y="2092" as="targetPoint" />
            <Array as="points">
              <mxPoint x="890" y="1060" />
              <mxPoint x="890" y="2180" />
            </Array>
          </mxGeometry>
        </mxCell>
        <mxCell id="0JRzUO5kH9y1u78RFZqx-60" value="No" style="text;html=1;align=center;verticalAlign=middle;resizable=0;points=[];autosize=1;strokeColor=none;fillColor=none;fontSize=16;" vertex="1" parent="1">
          <mxGeometry x="890" y="1490" width="40" height="30" as="geometry" />
        </mxCell>
        <mxCell id="0JRzUO5kH9y1u78RFZqx-61" value="" style="edgeStyle=segmentEdgeStyle;endArrow=classic;html=1;curved=0;rounded=0;endSize=8;startSize=8;fontSize=12;exitX=1;exitY=0.5;exitDx=0;exitDy=0;entryX=1;entryY=0.5;entryDx=0;entryDy=0;" edge="1" parent="1" source="0JRzUO5kH9y1u78RFZqx-42" target="0JRzUO5kH9y1u78RFZqx-46">
          <mxGeometry width="50" height="50" relative="1" as="geometry">
            <mxPoint x="654" y="1520" as="sourcePoint" />
            <mxPoint x="574" y="1777.5" as="targetPoint" />
            <Array as="points">
              <mxPoint x="784" y="1615" />
              <mxPoint x="784" y="1903" />
              <mxPoint x="530" y="1903" />
            </Array>
          </mxGeometry>
        </mxCell>
        <mxCell id="0JRzUO5kH9y1u78RFZqx-62" value="No" style="text;html=1;align=center;verticalAlign=middle;resizable=0;points=[];autosize=1;strokeColor=none;fillColor=none;fontSize=16;" vertex="1" parent="1">
          <mxGeometry x="744" y="1700" width="40" height="30" as="geometry" />
        </mxCell>
        <mxCell id="0JRzUO5kH9y1u78RFZqx-63" value="&lt;p style=&quot;white-space-collapse: preserve;&quot; dir=&quot;auto&quot;&gt;Gọi manualControl()&lt;/p&gt;" style="rounded=0;whiteSpace=wrap;html=1;" vertex="1" parent="1">
          <mxGeometry x="210" y="2000" width="120" height="60" as="geometry" />
        </mxCell>
        <mxCell id="0JRzUO5kH9y1u78RFZqx-67" value="No" style="text;html=1;align=center;verticalAlign=middle;resizable=0;points=[];autosize=1;strokeColor=none;fillColor=none;fontSize=16;" vertex="1" parent="1">
          <mxGeometry x="290" y="1870" width="40" height="30" as="geometry" />
        </mxCell>
        <mxCell id="0JRzUO5kH9y1u78RFZqx-74" value="" style="edgeStyle=none;curved=1;rounded=0;orthogonalLoop=1;jettySize=auto;html=1;fontSize=12;startSize=8;endSize=8;entryX=0.5;entryY=0;entryDx=0;entryDy=0;" edge="1" parent="1" source="0JRzUO5kH9y1u78RFZqx-76" target="0JRzUO5kH9y1u78RFZqx-25">
          <mxGeometry relative="1" as="geometry">
            <mxPoint x="502" y="1160" as="targetPoint" />
          </mxGeometry>
        </mxCell>
        <mxCell id="0JRzUO5kH9y1u78RFZqx-69" value="&lt;p style=&quot;white-space-collapse: preserve;&quot; dir=&quot;auto&quot;&gt;Có dữ liệu radio?&lt;/p&gt;" style="rhombus;whiteSpace=wrap;html=1;rounded=1;" vertex="1" parent="1">
          <mxGeometry x="415" y="1010" width="130" height="100" as="geometry" />
        </mxCell>
        <mxCell id="0JRzUO5kH9y1u78RFZqx-75" value="Có" style="text;html=1;align=center;verticalAlign=middle;resizable=0;points=[];autosize=1;strokeColor=none;fillColor=none;fontSize=16;" vertex="1" parent="1">
          <mxGeometry x="485" y="1110" width="40" height="30" as="geometry" />
        </mxCell>
        <mxCell id="0JRzUO5kH9y1u78RFZqx-77" value="" style="edgeStyle=none;curved=1;rounded=0;orthogonalLoop=1;jettySize=auto;html=1;fontSize=12;startSize=8;endSize=8;entryX=0.5;entryY=0;entryDx=0;entryDy=0;" edge="1" parent="1" source="0JRzUO5kH9y1u78RFZqx-69" target="0JRzUO5kH9y1u78RFZqx-76">
          <mxGeometry relative="1" as="geometry">
            <mxPoint x="480" y="1110" as="sourcePoint" />
            <mxPoint x="480" y="1220" as="targetPoint" />
          </mxGeometry>
        </mxCell>
        <mxCell id="0JRzUO5kH9y1u78RFZqx-76" value="- Đọc dữ liệu vào DataPacket&amp;nbsp;&lt;br&gt;   - Nếu millis() - lastLogTime &amp;gt;= 100:&lt;br&gt;     - In joystick (X, Y) và nút (A, B, C, D, E, F)&lt;br&gt;     - Cập nhật lastLogTime" style="rounded=0;whiteSpace=wrap;html=1;align=left;" vertex="1" parent="1">
          <mxGeometry x="365" y="1140" width="230" height="80" as="geometry" />
        </mxCell>
        <mxCell id="0JRzUO5kH9y1u78RFZqx-78" value="Yes" style="text;html=1;align=center;verticalAlign=middle;resizable=0;points=[];autosize=1;strokeColor=none;fillColor=none;fontSize=16;" vertex="1" parent="1">
          <mxGeometry x="480" y="1380" width="50" height="30" as="geometry" />
        </mxCell>
        <mxCell id="0JRzUO5kH9y1u78RFZqx-80" value="" style="edgeStyle=segmentEdgeStyle;endArrow=classic;html=1;curved=0;rounded=0;endSize=8;startSize=8;fontSize=12;" edge="1" parent="1" source="0JRzUO5kH9y1u78RFZqx-25" target="0JRzUO5kH9y1u78RFZqx-42">
          <mxGeometry width="50" height="50" relative="1" as="geometry">
            <mxPoint x="640" y="1410" as="sourcePoint" />
            <mxPoint x="610" y="1620" as="targetPoint" />
            <Array as="points">
              <mxPoint x="170" y="1313" />
              <mxPoint x="170" y="1615" />
            </Array>
          </mxGeometry>
        </mxCell>
        <mxCell id="0JRzUO5kH9y1u78RFZqx-83" value="No" style="text;html=1;align=center;verticalAlign=middle;resizable=0;points=[];autosize=1;strokeColor=none;fillColor=none;fontSize=16;" vertex="1" parent="1">
          <mxGeometry x="164" y="1411" width="40" height="30" as="geometry" />
        </mxCell>
        <mxCell id="0JRzUO5kH9y1u78RFZqx-84" value="Yes" style="text;html=1;align=center;verticalAlign=middle;resizable=0;points=[];autosize=1;strokeColor=none;fillColor=none;fontSize=16;" vertex="1" parent="1">
          <mxGeometry x="485" y="1670" width="50" height="30" as="geometry" />
        </mxCell>
        <mxCell id="0JRzUO5kH9y1u78RFZqx-87" value="" style="edgeStyle=segmentEdgeStyle;endArrow=classic;html=1;curved=0;rounded=0;endSize=8;startSize=8;fontSize=12;exitX=0;exitY=0.5;exitDx=0;exitDy=0;entryX=0.5;entryY=0;entryDx=0;entryDy=0;" edge="1" parent="1" source="0JRzUO5kH9y1u78RFZqx-46" target="0JRzUO5kH9y1u78RFZqx-63">
          <mxGeometry width="50" height="50" relative="1" as="geometry">
            <mxPoint x="640" y="1910" as="sourcePoint" />
            <mxPoint x="690" y="1860" as="targetPoint" />
          </mxGeometry>
        </mxCell>
      </root>
    </mxGraphModel>
  </diagram>
</mxfile>
